<svg width="24" height="24" viewBox="0 0 24 24" fill="none" xmlns="http://www.w3.org/2000/svg">
<path d="M10.5 22C5.25329 22 1 17.5228 1 12C1 6.47715 5.25329 2 10.5 2C15.7467 2 20 6.47715 20 12C20 17.5228 15.7467 22 10.5 22Z" stroke="#463D61" stroke-width="2" stroke-linecap="round" stroke-linejoin="round"/>
<path d="M13 8.8C12.3635 8.2839 11.5694 8.00154 10.75 8C8.679 8 7 9.79 7 12C7 14.21 8.679 16 10.75 16C11.594 16 12.373 15.702 13 15.2" stroke="#463D61" stroke-width="2" stroke-linecap="round" stroke-linejoin="round"/>
<path d="M10 2C14.333 2 23 3 23 12C23 21 14.333 22 10 22" stroke="#463D61" stroke-width="2"/>
</svg>
