<svg width="24" height="24" viewBox="0 0 24 24" fill="none" xmlns="http://www.w3.org/2000/svg">
<path fill-rule="evenodd" clip-rule="evenodd" d="M21.4559 5.41632C21.5509 5.56052 21.5932 5.7331 21.5757 5.9049C21.5582 6.07671 21.482 6.23721 21.3599 6.35932L12.1669 15.5513C12.0728 15.6453 11.9555 15.7126 11.8269 15.7463L7.99787 16.7463C7.8713 16.7793 7.7383 16.7787 7.61206 16.7444C7.48583 16.7101 7.37076 16.6434 7.27826 16.5509C7.18577 16.4584 7.11908 16.3434 7.0848 16.2171C7.05053 16.0909 7.04986 15.9579 7.08287 15.8313L8.08287 12.0033C8.11206 11.8884 8.16713 11.7817 8.24387 11.6913L17.4709 2.47032C17.6115 2.32987 17.8021 2.25098 18.0009 2.25098C18.1996 2.25098 18.3902 2.32987 18.5309 2.47032L21.3599 5.29832C21.3958 5.33432 21.4279 5.37386 21.4559 5.41632ZM19.7689 5.82832L18.0009 4.06132L9.48287 12.5793L8.85787 14.9723L11.2509 14.3473L19.7689 5.82832Z" fill="#00C48C"/>
<path d="M19.6415 17.1599C19.9149 14.8238 20.0021 12.4698 19.9025 10.1199C19.9004 10.0645 19.9096 10.0093 19.9298 9.95769C19.9499 9.90608 19.9805 9.85916 20.0195 9.81989L21.0035 8.83589C21.0304 8.80885 21.0646 8.79014 21.1018 8.78203C21.1391 8.77392 21.1779 8.77674 21.2136 8.79015C21.2493 8.80356 21.2803 8.827 21.303 8.85764C21.3257 8.88828 21.3391 8.92483 21.3415 8.96289C21.5267 11.7541 21.4565 14.5564 21.1315 17.3349C20.8955 19.3569 19.2715 20.9419 17.2585 21.1669C13.7639 21.5539 10.2372 21.5539 6.74254 21.1669C4.73054 20.9419 3.10554 19.3569 2.86954 17.3349C2.45494 13.7903 2.45494 10.2095 2.86954 6.66489C3.10554 4.64289 4.72954 3.05789 6.74254 2.83289C9.39491 2.53877 12.0673 2.46752 14.7315 2.61989C14.7697 2.62262 14.8062 2.63623 14.8369 2.6591C14.8675 2.68196 14.8909 2.71313 14.9044 2.74891C14.9179 2.78468 14.9208 2.82357 14.9128 2.86096C14.9049 2.89835 14.8864 2.93268 14.8595 2.95989L13.8665 3.95189C13.8277 3.99064 13.7812 4.02101 13.7302 4.04113C13.6791 4.06125 13.6244 4.0707 13.5695 4.06889C11.3463 3.99331 9.1205 4.07853 6.90954 4.32389C6.26348 4.39539 5.6604 4.68261 5.1977 5.13914C4.735 5.59567 4.43972 6.19485 4.35954 6.83989C3.95859 10.2682 3.95859 13.7316 4.35954 17.1599C4.43972 17.8049 4.735 18.4041 5.1977 18.8606C5.6604 19.3172 6.26348 19.6044 6.90954 19.6759C10.2645 20.0509 13.7365 20.0509 17.0925 19.6759C17.7386 19.6044 18.3417 19.3172 18.8044 18.8606C19.2671 18.4041 19.5614 17.8049 19.6415 17.1599Z" fill="#00C48C"/>
</svg>
