<svg width="38" height="40" viewBox="0 0 38 40" fill="none" xmlns="http://www.w3.org/2000/svg">
<path fill-rule="evenodd" clip-rule="evenodd" d="M23.0411 23.9714C25.2389 23.7492 28.3415 22.9514 30.9286 21.2504C33.6402 19.4676 35.7521 16.7254 35.7521 12.5721C35.7521 8.28991 34.2504 5.72399 32.4731 4.21516C30.663 2.67851 28.4828 2.16754 27.0615 2.16754H3.04786C2.2712 2.16754 1.88455 3.10647 2.43691 3.65122L23.0411 23.9714Z" fill="#EA0022"/>
<path d="M30.9286 21.2504C28.3415 22.9514 25.2389 23.7492 23.0411 23.9714L2.43691 3.65122C1.88455 3.10647 2.2712 2.16754 3.04786 2.16754H27.0615C28.4828 2.16754 30.663 2.67851 32.4731 4.21516C34.2504 5.72399 35.7521 8.28991 35.7521 12.5721C35.7521 16.7254 33.6402 19.4676 30.9286 21.2504Z" fill="#EA0022"/>
<path d="M30.9294 22.1178C28.3423 23.8187 25.2397 24.6166 23.0419 24.8388L2.82727 4.02798L19.3382 17.1512C23.0419 20.0662 26.7779 19.8072 30.2986 18.1542C32.1547 17.2828 34.302 15.6488 35.9397 11.2553C36.1436 12.7044 36.9002 18.0768 30.9294 22.1178Z" fill="#9B0003"/>
<path fill-rule="evenodd" clip-rule="evenodd" d="M19.2421 37.7163L5.066 24.2309C4.51284 23.7046 3.59723 24.0958 3.59723 24.8584V36.8493C3.59723 37.3281 3.98632 37.7163 4.46629 37.7163H19.2421Z" fill="#BDBDBD"/>
<path d="M5.066 24.2309L19.2421 37.7163H4.46629C3.98632 37.7163 3.59723 37.3281 3.59723 36.8493V24.8584C3.59723 24.0958 4.51284 23.7046 5.066 24.2309Z" fill="#BDBDBD"/>
<path opacity="0.58" d="M4.86901 33.6773L4.86907 31.3136C4.92067 33.3562 5.31211 34.7355 6.40046 35.3377C8.36267 36.3818 7.62139 36.5123 5.46287 36.3818C4.81005 36.3423 4.89572 34.7348 4.86901 33.6773Z" fill="white"/>
<path d="M11.9948 30.8533C16.5408 36.7948 11.3508 38.2801 8.18756 38.2801H19.9502L11.9948 30.8533Z" fill="#797979"/>
<path opacity="0.58" d="M27.2674 3.18576H20.8776C24.7907 3.18576 28.2904 3.90611 29.4957 5.95112C30.7105 8.64802 33.6044 8.48873 32.4305 6.27645C31.2566 4.06417 29.2933 3.18576 27.2674 3.18576Z" fill="white"/>
<path fill-rule="evenodd" clip-rule="evenodd" d="M1.21442 4.88463C-0.442643 3.2504 0.717256 0.433594 3.04728 0.433594H27.0609C28.8262 0.433594 31.4258 1.04979 33.5989 2.89463C35.8048 4.76729 37.4896 7.83718 37.4896 12.5723C37.4896 17.4363 34.9665 20.6721 31.8844 22.6985C29.5259 24.2492 26.8211 25.1103 24.5942 25.5039L34.2227 34.9997C35.8798 36.634 34.7199 39.4508 32.3899 39.4508H4.46543C3.02553 39.4508 1.85826 38.2862 1.85826 36.8496V24.8587C1.85826 22.5711 4.60509 21.3975 6.26458 22.9762L21.76 37.7167H32.3899C33.1665 37.7167 33.5532 36.7777 33.0008 36.233L1.21442 4.88463ZM30.928 21.2505C28.3409 22.9515 25.2383 23.7493 23.0405 23.9716L2.43633 3.65137C1.88397 3.10662 2.27061 2.16769 3.04728 2.16769H27.0609C28.4822 2.16769 30.6624 2.67866 32.4725 4.21531C34.2498 5.72414 35.7515 8.29006 35.7515 12.5723C35.7515 16.7255 33.6397 19.4677 30.928 21.2505ZM19.2412 37.7167L5.06515 24.2312C4.51198 23.705 3.59637 24.0962 3.59637 24.8587V36.8496C3.59637 37.3285 3.98546 37.7167 4.46543 37.7167H19.2412Z" fill="#4A4949"/>
<path fill-rule="evenodd" clip-rule="evenodd" d="M0.909468 5.19288C-1.02377 3.28628 0.329442 0 3.0478 0H27.0615C28.9127 0 31.6172 0.642497 33.881 2.56439C36.1941 4.52801 37.9247 7.72389 37.9247 12.5722C37.9247 17.6139 35.2988 20.9731 32.1241 23.0604C29.9889 24.4642 27.5837 25.3143 25.4833 25.7706L34.5287 34.6913C36.462 36.598 35.1087 39.8842 32.3904 39.8842H4.46596C2.78607 39.8842 1.42425 38.5256 1.42425 36.8496V24.8586C1.42425 22.1897 4.62889 20.8206 6.56496 22.6623L21.9345 37.2831H32.3904C32.7787 37.2831 32.972 36.8136 32.6959 36.5412L0.909468 5.19288ZM18.1564 37.2831L4.76581 24.5449C4.48923 24.2818 4.03143 24.4774 4.03143 24.8586V36.8496C4.03143 37.089 4.22597 37.2831 4.46596 37.2831H18.1564ZM23.1996 23.5184C25.3296 23.274 28.2517 22.4912 30.6895 20.8885C33.3085 19.1666 35.3175 16.5478 35.3175 12.5722C35.3175 8.40321 33.8616 5.96328 32.1915 4.54541C30.4721 3.08581 28.3967 2.60115 27.0615 2.60115H3.0478C2.65948 2.60115 2.46615 3.07061 2.74233 3.34299L23.1996 23.5184Z" fill="#4A4949"/>
</svg>
