<svg width="28" height="28" viewBox="0 0 28 28" fill="none" xmlns="http://www.w3.org/2000/svg">
<path d="M6.25 4.99701H21.75C23.483 4.99701 24.8992 6.35346 24.9949 8.06259L25 8.24701V19.747C25 21.48 23.6435 22.8963 21.9344 22.9919L21.75 22.997H6.25C4.51697 22.997 3.10075 21.6406 3.00514 19.9314L3 19.747V8.24701C3 6.51398 4.35645 5.09776 6.06558 5.00215L6.25 4.99701H21.75H6.25ZM23.5 10.902L14.346 15.6624C14.1653 15.7564 13.9558 15.7721 13.7655 15.7094L13.654 15.6624L4.5 10.902V19.747C4.5 20.6652 5.20711 21.4182 6.10647 21.4912L6.25 21.497H21.75C22.6682 21.497 23.4212 20.7899 23.4942 19.8905L23.5 19.747V10.902ZM21.75 6.49701H6.25C5.33183 6.49701 4.57881 7.20412 4.5058 8.10348L4.5 8.24701V9.21101L14 14.1517L23.5 9.21101V8.24701C23.5 7.32884 22.7929 6.57582 21.8935 6.50281L21.75 6.49701Z" fill="#4D4959"/>
</svg>
