<svg width="150" height="37" viewBox="0 0 150 37" fill="none" xmlns="http://www.w3.org/2000/svg">
<path d="M24.0974 36.2916C23.9347 36.2916 23.7822 36.2124 23.6885 36.0794L16.6076 26.0206C16.5066 25.8772 16.3379 25.7973 16.163 25.809C15.3821 25.8612 14.758 25.8872 14.2907 25.8872H6.32066C6.04452 25.8872 5.82066 26.1111 5.82066 26.3872V35.7916C5.82066 36.0677 5.59681 36.2916 5.32066 36.2916H1.42468C1.14854 36.2916 0.924683 36.0677 0.924683 35.7916V2.59895C0.924683 2.32281 1.14854 2.09895 1.42468 2.09895H14.2907C18.7297 2.09895 22.2222 3.15729 24.7681 5.27398C27.314 7.39067 28.587 10.3052 28.587 14.0175C28.587 16.6552 27.9342 18.9022 26.6286 20.7584C25.4372 22.4522 23.7836 23.7257 21.6681 24.5789C21.3599 24.7032 21.2384 25.0828 21.4305 25.354L28.6159 35.5027C28.8504 35.8338 28.6136 36.2916 28.2079 36.2916H24.0974ZM14.1438 21.7353C17.2446 21.7353 19.611 21.0677 21.243 19.7326C22.875 18.3974 23.691 16.4924 23.691 14.0175C23.691 11.5426 22.875 9.65389 21.243 8.35132C19.611 7.01618 17.2446 6.34861 14.1438 6.34861H6.32066C6.04452 6.34861 5.82066 6.57246 5.82066 6.84861V21.2353C5.82066 21.5114 6.04452 21.7353 6.32066 21.7353H14.1438Z" fill="#4A4949"/>
<path d="M80.4752 10.5121C80.4752 10.236 80.6991 10.0121 80.9752 10.0121H87.6129C87.8891 10.0121 88.1129 10.236 88.1129 10.5121V35.7916C88.1129 36.0677 87.8891 36.2916 87.6129 36.2916H84.2941H80.4752V29.8621V10.5121Z" fill="#4A4949"/>
<path d="M107.386 9.62133C110.65 9.62133 113.278 10.5983 115.269 12.5521C117.292 14.506 118.304 17.4042 118.304 21.2468V35.7916C118.304 36.0677 118.08 36.2916 117.804 36.2916H111.167C110.89 36.2916 110.667 36.0677 110.667 35.7916V22.4191C110.667 20.335 110.21 18.7882 109.296 17.7787C108.382 16.7367 107.06 16.2156 105.33 16.2156C103.404 16.2156 101.87 16.8181 100.728 18.0229C99.5854 19.1953 99.0142 20.9537 99.0142 23.2984V35.7916C99.0142 36.0677 98.7903 36.2916 98.5142 36.2916H91.8764C91.6003 36.2916 91.3764 36.0677 91.3764 35.7916V10.5121C91.3764 10.236 91.6003 10.0121 91.8764 10.0121H98.1714C98.4476 10.0121 98.6714 10.236 98.6714 10.5121V11.8011C98.6714 12.2575 99.2518 12.4925 99.6028 12.2008C100.424 11.5179 101.371 10.9674 102.441 10.5494C103.943 9.93069 105.591 9.62133 107.386 9.62133Z" fill="#4A4949"/>
<path d="M133.059 26.4141C132.873 26.1842 132.53 26.1646 132.319 26.372L129.19 29.4527C129.094 29.5467 129.04 29.675 129.04 29.809V35.7916C129.04 36.0677 128.816 36.2916 128.54 36.2916H121.903C121.626 36.2916 121.403 36.0677 121.403 35.7916V0.547394C121.403 0.271251 121.626 0.0473938 121.903 0.0473938H128.54C128.816 0.0473938 129.04 0.271251 129.04 0.547394V19.4024C129.04 19.8411 129.565 20.0671 129.884 19.7658L140.059 10.1487C140.151 10.061 140.274 10.0121 140.402 10.0121H148.116C148.559 10.0121 148.783 10.5468 148.472 10.8629L138.652 20.8349C138.475 21.0144 138.46 21.2975 138.616 21.4954L149.65 35.4819C149.909 35.8098 149.675 36.2916 149.258 36.2916H141.274C141.123 36.2916 140.98 36.2233 140.885 36.1057L133.059 26.4141Z" fill="#4A4949"/>
<path d="M62.5603 33.8981C64.2902 35.4937 66.7219 36.2916 69.8553 36.2916H80.4752V29.8621H71.047C70.0025 29.8621 69.1865 29.5691 68.599 28.9829C68.0441 28.3642 67.7667 27.5012 67.7667 26.394V16.1966C67.7667 15.9205 67.9905 15.6966 68.2667 15.6966H73.8273C74.1035 15.6966 74.3273 15.4728 74.3273 15.1966V10.335C74.3273 10.0589 74.1035 9.83503 73.8273 9.83503H68.2667C67.9905 9.83503 67.7667 9.61118 67.7667 9.33503V3.93613C67.7667 3.65999 67.5428 3.43613 67.2667 3.43613H60.629C60.3528 3.43613 60.129 3.65999 60.129 3.93613V9.33503C60.129 9.61117 59.9051 9.83503 59.629 9.83503H56.5653C56.2892 9.83503 56.0653 10.0589 56.0653 10.335V15.1966C56.0653 15.4728 56.2892 15.6966 56.5653 15.6966H59.6238C59.902 15.6966 60.1266 15.9236 60.1238 16.2018L60.0144 26.8642C60.0144 29.9578 60.863 32.3024 62.5603 33.8981Z" fill="#4A4949"/>
<path fill-rule="evenodd" clip-rule="evenodd" d="M55.0712 23.4938C55.0712 23.7563 55.0536 24.0801 55.0186 24.4651C54.9955 24.7188 54.7806 24.9103 54.5259 24.9103H34.4891C34.1876 24.9103 33.9536 25.1757 34.0088 25.4721C34.3854 27.494 35.3515 29.1466 36.9071 30.43C38.637 31.7977 40.7749 32.4815 43.3208 32.4815H54.5712C54.8473 32.4815 55.0712 32.7054 55.0712 32.9815V36.0847C55.0712 36.3608 54.8473 36.5847 54.5712 36.5847H43.1739C40.4322 36.5847 38.0005 36.0311 35.8789 34.9239C33.7573 33.7841 32.109 32.2047 30.934 30.1857C29.7916 28.1668 29.2204 25.8872 29.2204 23.3472C29.2204 20.8398 29.7753 18.5765 30.885 16.5575C32.0274 14.5386 33.5778 12.9755 35.5362 11.8683C37.5272 10.7285 39.7631 10.1586 42.2437 10.1586C44.7243 10.1586 46.9275 10.7285 48.8533 11.8683C50.8117 12.9755 52.3294 14.5386 53.4066 16.5575C54.5163 18.5765 55.0712 20.8886 55.0712 23.4938ZM36.5644 16.1668C38.0984 14.7991 39.9916 14.1152 42.2437 14.1152C44.4959 14.1152 46.3727 14.8154 47.8741 16.2156C49.2754 17.4649 50.1456 19.0539 50.4848 20.9824C50.5367 21.2776 50.3032 21.5399 50.0035 21.5399H34.483C34.1836 21.5399 33.9503 21.2782 34.0008 20.9831C34.3363 19.0234 35.1909 17.4179 36.5644 16.1668Z" fill="#4A4949"/>
</svg>
