<svg width="20" height="22" viewBox="0 0 20 22" fill="none" xmlns="http://www.w3.org/2000/svg">
<path d="M8.59212 0.494897C9.41473 -0.164966 10.5853 -0.164966 11.4079 0.494897L19.1579 6.71164C19.6902 7.13868 20 7.78427 20 8.46675V19.747C20 20.9897 18.9926 21.997 17.75 21.997H15.25C14.0074 21.997 13 20.9897 13 19.747V13.247C13 12.8328 12.6642 12.497 12.25 12.497H7.75C7.33579 12.497 7 12.8328 7 13.247V19.747C7 20.9897 5.99264 21.997 4.75 21.997H2.25C1.00736 21.997 0 20.9897 0 19.747V8.46675C0 7.78427 0.309763 7.13868 0.842125 6.71164L8.59212 0.494897Z" fill="#5E3EBA"/>
</svg>
