<svg width="21" height="21" viewBox="0 0 21 21" fill="none" xmlns="http://www.w3.org/2000/svg">
<path d="M1 2.16368C1 1.85426 1.12292 1.55751 1.34171 1.33872C1.5605 1.11993 1.85725 0.997009 2.16667 0.997009H18.5C18.8094 0.997009 19.1062 1.11993 19.325 1.33872C19.5438 1.55751 19.6667 1.85426 19.6667 2.16368V4.49701C19.6667 4.80643 19.5438 5.10317 19.325 5.32197C19.1062 5.54076 18.8094 5.66368 18.5 5.66368H2.16667C1.85725 5.66368 1.5605 5.54076 1.34171 5.32197C1.12292 5.10317 1 4.80643 1 4.49701V2.16368ZM1 11.497C1 11.1876 1.12292 10.8908 1.34171 10.6721C1.5605 10.4533 1.85725 10.3303 2.16667 10.3303H9.16667C9.47609 10.3303 9.77283 10.4533 9.99162 10.6721C10.2104 10.8908 10.3333 11.1876 10.3333 11.497V18.497C10.3333 18.8064 10.2104 19.1032 9.99162 19.322C9.77283 19.5408 9.47609 19.6637 9.16667 19.6637H2.16667C1.85725 19.6637 1.5605 19.5408 1.34171 19.322C1.12292 19.1032 1 18.8064 1 18.497V11.497ZM15 11.497C15 11.1876 15.1229 10.8908 15.3417 10.6721C15.5605 10.4533 15.8572 10.3303 16.1667 10.3303H18.5C18.8094 10.3303 19.1062 10.4533 19.325 10.6721C19.5438 10.8908 19.6667 11.1876 19.6667 11.497V18.497C19.6667 18.8064 19.5438 19.1032 19.325 19.322C19.1062 19.5408 18.8094 19.6637 18.5 19.6637H16.1667C15.8572 19.6637 15.5605 19.5408 15.3417 19.322C15.1229 19.1032 15 18.8064 15 18.497V11.497Z" stroke="#4D4959" stroke-width="2" stroke-linecap="round" stroke-linejoin="round"/>
</svg>
