<svg width="28" height="28" viewBox="0 0 28 28" fill="none" xmlns="http://www.w3.org/2000/svg">
<path d="M14 3C18.6097 3 22.3625 6.66899 22.4975 11.246L22.5012 11.5012L22.501 16.113L23.915 19.757C23.9532 19.8554 23.979 19.958 23.9919 20.0624L24.0017 20.22C24.0017 20.8827 23.498 21.4278 22.8526 21.4934L22.7217 21.5L17.5014 21.5011C17.5014 23.4348 15.9338 25.0025 14 25.0025C12.1307 25.0025 10.6035 23.5376 10.5038 21.6932L10.4984 21.499L5.27479 21.5C5.11608 21.5 4.95876 21.4705 4.81084 21.413C4.19317 21.1727 3.8677 20.5057 4.04055 19.8804L4.08183 19.7561L5.498 16.112L5.49876 11.5012C5.49876 6.80614 9.30489 3 14 3ZM15.9959 21.6504L16.0004 21.499L11.9986 21.5011C11.9986 22.6064 12.8946 23.5025 14 23.5025C15.0551 23.5025 15.9195 22.686 15.9959 21.6504ZM14 4.5C10.2139 4.5 7.12968 7.50532 7.00282 11.2606L6.99876 11.5012V16.2534C6.99876 16.3154 6.99107 16.377 6.97596 16.4369L6.94776 16.5252L5.596 19.999H22.4L21.052 16.5246C21.0297 16.467 21.0145 16.4069 21.007 16.3457L21.0012 16.2534V11.5012C21.0012 7.63456 17.8667 4.5 14 4.5Z" fill="#4D4959"/>
</svg>
