<svg width="28" height="28" viewBox="0 0 28 28" fill="none" xmlns="http://www.w3.org/2000/svg">
<path d="M3 6.74701C3 4.67594 4.67893 2.99701 6.75 2.99701H21.25C23.3211 2.99701 25 4.67594 25 6.74701V21.247C25 23.3181 23.3211 24.997 21.25 24.997H6.75C4.67893 24.997 3 23.3181 3 21.247V6.74701ZM6.75 4.49701C5.50736 4.49701 4.5 5.50437 4.5 6.74701V21.247C4.5 22.4897 5.50736 23.497 6.75 23.497H16V4.49701H6.75ZM21.25 23.497C22.4926 23.497 23.5 22.4897 23.5 21.247V18.497H17.5V23.497H21.25ZM23.5 16.997V10.997H17.5V16.997H23.5ZM23.5 9.49701V6.74701C23.5 5.50437 22.4926 4.49701 21.25 4.49701H17.5V9.49701H23.5ZM7.75 7.49701C7.05964 7.49701 6.5 8.05665 6.5 8.74701V12.247C6.5 12.9374 7.05964 13.497 7.75 13.497H12.75C13.4404 13.497 14 12.9374 14 12.247V8.74701C14 8.05665 13.4404 7.49701 12.75 7.49701H7.75ZM8 11.997V8.99701H12.5V11.997H8ZM6.5 16.247C6.5 15.8328 6.83579 15.497 7.25 15.497H13.25C13.6642 15.497 14 15.8328 14 16.247C14 16.6612 13.6642 16.997 13.25 16.997H7.25C6.83579 16.997 6.5 16.6612 6.5 16.247ZM7.25 18.997C6.83579 18.997 6.5 19.3328 6.5 19.747C6.5 20.1612 6.83579 20.497 7.25 20.497H13.25C13.6642 20.497 14 20.1612 14 19.747C14 19.3328 13.6642 18.997 13.25 18.997H7.25Z" fill="#4D4959"/>
</svg>
