<svg width="24" height="24" viewBox="0 0 24 24" fill="none" xmlns="http://www.w3.org/2000/svg">
<path d="M5 4.24701C5 3.8328 4.66421 3.49701 4.25 3.49701C3.83579 3.49701 3.5 3.8328 3.5 4.24701V18.747C3.5 19.7135 4.2835 20.497 5.25 20.497H19.75C20.1642 20.497 20.5 20.1612 20.5 19.747C20.5 19.3328 20.1642 18.997 19.75 18.997H5.25C5.11193 18.997 5 18.8851 5 18.747V4.24701ZM14 6.74701C14 6.3328 14.3358 5.99701 14.75 5.99701H19.7515C20.1657 5.99701 20.5015 6.33279 20.5015 6.747L20.5015 11.752C20.5015 12.1662 20.1658 12.502 19.7515 12.502C19.3373 12.502 19.0015 12.1662 19.0015 11.752L19.0015 8.55618L13.7803 13.7773C13.4874 14.0702 13.0126 14.0702 12.7197 13.7773L10.75 11.8077L7.53033 15.0273C7.23744 15.3202 6.76256 15.3202 6.46967 15.0273C6.17678 14.7344 6.17678 14.2596 6.46967 13.9667L10.2197 10.2167C10.5126 9.92379 10.9874 9.92379 11.2803 10.2167L13.25 12.1863L17.9393 7.49701H14.75C14.3358 7.49701 14 7.16122 14 6.74701Z" fill="#4D4959"/>
</svg>
