<svg width="24" height="24" viewBox="0 0 24 24" fill="none" xmlns="http://www.w3.org/2000/svg">
<path d="M21.0538 20.0462C21.3321 20.3244 21.3321 20.7756 21.0538 21.0538C20.7756 21.3321 20.3244 21.3321 20.0462 21.0538L16.6262 17.6338C16.3479 17.3556 16.3479 16.9044 16.6262 16.6262C16.9044 16.3479 17.3556 16.3479 17.6338 16.6262L21.0538 20.0462ZM10.29 17.8425C6.11887 17.8425 2.7375 14.4611 2.7375 10.29C2.7375 6.11887 6.11887 2.7375 10.29 2.7375C14.4611 2.7375 17.8425 6.11887 17.8425 10.29C17.8425 14.4611 14.4611 17.8425 10.29 17.8425ZM10.29 16.4175C13.6741 16.4175 16.4175 13.6741 16.4175 10.29C16.4175 6.90588 13.6741 4.1625 10.29 4.1625C6.90587 4.1625 4.1625 6.90588 4.1625 10.29C4.1625 13.6741 6.90587 16.4175 10.29 16.4175ZM6.775 9.72C6.775 9.98234 6.56233 10.195 6.3 10.195C6.03766 10.195 5.825 9.98234 5.825 9.72C5.825 7.56885 7.56885 5.825 9.72 5.825C9.98233 5.825 10.195 6.03766 10.195 6.3C10.195 6.56234 9.98233 6.775 9.72 6.775C8.09352 6.775 6.775 8.09352 6.775 9.72Z" fill="#463D61"/>
</svg>
