<svg width="24" height="24" viewBox="0 0 24 24" fill="none" xmlns="http://www.w3.org/2000/svg">
<path d="M21.0538 20.0462C21.3321 20.3244 21.3321 20.7756 21.0538 21.0538C20.7756 21.3321 20.3244 21.3321 20.0462 21.0538L16.6262 17.6338C16.3479 17.3556 16.3479 16.9044 16.6262 16.6262C16.9044 16.3479 17.3556 16.3479 17.6338 16.6262L21.0538 20.0462ZM10.29 17.8425C6.11886 17.8425 2.73749 14.4611 2.73749 10.29C2.73749 6.11886 6.11886 2.73749 10.29 2.73749C14.4611 2.73749 17.8425 6.11886 17.8425 10.29C17.8425 14.4611 14.4611 17.8425 10.29 17.8425ZM10.29 16.4175C13.6741 16.4175 16.4175 13.6741 16.4175 10.29C16.4175 6.90586 13.6741 4.16249 10.29 4.16249C6.90586 4.16249 4.16249 6.90586 4.16249 10.29C4.16249 13.6741 6.90586 16.4175 10.29 16.4175ZM6.77499 9.71999C6.77499 9.98232 6.56232 10.195 6.29999 10.195C6.03765 10.195 5.82499 9.98232 5.82499 9.71999C5.82499 7.56884 7.56884 5.82499 9.71999 5.82499C9.98232 5.82499 10.195 6.03765 10.195 6.29999C10.195 6.56232 9.98232 6.77499 9.71999 6.77499C8.09351 6.77499 6.77499 8.09351 6.77499 9.71999Z" fill="#463D61"/>
</svg>
